PathFileType	4	(X/Y/Z)	s04c0201.trc
DataRate	CameraRate	NumFrames	NumMarkers	Units	OrigDataRate	OrigDataStartFrame	OrigNumFrames
200	200	6	51	mm	200	1750	2000
Frame#	Time	racr			lacr			c7			jug			rlel			rdr			llel			ldr			s2			lic			ric			lasi			rasi			rpsi			lpsi			rgt			lgt			rth1			rth2			rth3			rth4			rlfc			rmfc			rsh1			rsh2			rsh3			rsh4			rlmal			rmmal			rcal			rtoe			rmt5			lth1			lth2			lth4			lth3			llfc			lmfc			lsh1			lsh2			lsh3			lsh4			llmal			lmmal			lcal			ltoe			lmt1			lmt5			SBIKE			LBIKE			RBIKE			
		X1	Y1	Z1	X2	Y2	Z2	X3	Y3	Z3	X4	Y4	Z4	X5	Y5	Z5	X6	Y6	Z6	X7	Y7	Z7	X8	Y8	Z8	X9	Y9	Z9	X10	Y10	Z10	X11	Y11	Z11	X12	Y12	Z12	X13	Y13	Z13	X14	Y14	Z14	X15	Y15	Z15	X16	Y16	Z16	X17	Y17	Z17	X18	Y18	Z18	X19	Y19	Z19	X20	Y20	Z20	X21	Y21	Z21	X22	Y22	Z22	X23	Y23	Z23	X24	Y24	Z24	X25	Y25	Z25	X26	Y26	Z26	X27	Y27	Z27	X28	Y28	Z28	X29	Y29	Z29	X30	Y30	Z30	X31	Y31	Z31	X32	Y32	Z32	X33	Y33	Z33	X34	Y34	Z34	X35	Y35	Z35	X36	Y36	Z36	X37	Y37	Z37	X38	Y38	Z38	X39	Y39	Z39	X40	Y40	Z40	X41	Y41	Z41	X42	Y42	Z42	X43	Y43	Z43	X44	Y44	Z44	X45	Y45	Z45	X46	Y46	Z46	X47	Y47	Z47	X48	Y48	Z48	X49	Y49	Z49	X50	Y50	Z50	X51	Y51	Z51	
1750	8.7500	515.736843	1342.620567	-121.460467	541.691066	1341.018885	-380.944855	484.460947	1410.546767	-262.973313	465.907605	1251.365726	-265.325352	438.430017	1061.550449	22.440888	674.483885	947.422233	-104.138829	472.359125	1119.101261	-577.994456	681.807230	946.520156	-501.033219	-77.903741	1182.606234	-303.840371	87.399208	1189.886845	-457.717132	63.303350	1204.757877	-139.179319	117.838446	1139.288494	-410.412400	103.700523	1147.514614	-175.815643	-55.939676	1232.097982	-263.023793	-49.240876	1227.505145	-338.915206	26.650232	1164.520953	-116.962072	36.209919	1083.798755	-478.458045	163.687355	1087.085460	-115.023302	249.856296	1070.070836	-127.471768	316.312432	1017.710185	-128.739507	260.725346	1099.504775	-148.550938	437.142460	934.730821	-158.277230	417.066860	907.073656	-270.241982	388.483750	822.604564	-127.732775	376.914786	735.133561	-134.073216	320.481875	669.582720	-134.387883	406.528475	724.104560	-156.873242	273.554946	519.164788	-132.242122	292.541354	521.429412	-217.035655	198.554589	493.130084	-166.434612	493.296501	433.478676	-167.685040	426.454744	419.651308	-108.882149	86.865044	1001.446387	-491.936807	157.528179	951.437457	-498.408663	185.215508	974.166948	-491.896660	195.103557	870.748544	-502.616553	275.725787	731.478920	-482.629066	304.703017	705.243865	-373.761355	225.895617	618.502174	-500.397391	196.634092	540.831093	-473.488053	130.368094	481.947747	-468.395632	220.936680	530.537265	-444.288042	44.256978	362.730559	-454.905815	45.468391	367.049357	-365.991750	-31.979888	385.778847	-410.470518	207.751500	200.094772	-414.657540	0.000000	0.000000	-0.000000	127.552816	209.988283	-474.848088	-190.563234	934.158510	-287.041782	-18.340042	79.363434	-484.647559	-18.256073	79.418483	-83.826360	
1751	8.7550	515.871649	1342.633126	-121.628121	540.891748	1340.390209	-382.056721	484.449826	1409.964622	-264.000204	465.878757	1250.610524	-265.830897	438.619512	1061.758542	22.354746	674.544825	947.479679	-104.239752	471.076559	1118.164981	-578.309281	681.543762	946.362596	-502.104507	-77.763742	1181.289163	-304.233272	87.895944	1189.358560	-457.631178	63.743104	1203.220199	-138.805855	118.149145	1138.677383	-409.738690	105.313998	1147.413278	-176.335407	-55.796000	1230.764147	-262.892079	-49.108558	1226.449165	-339.179880	27.535512	1161.366415	-117.008086	37.621922	1082.960017	-478.883378	164.115819	1080.067357	-114.359591	249.801699	1060.967270	-126.633197	314.953657	1006.442644	-129.463303	261.524050	1090.343809	-147.196052	433.540899	922.054645	-157.811924	412.934712	893.694442	-269.561793	385.985653	808.387508	-127.173892	375.831813	720.734273	-133.915539	320.362807	654.299833	-134.206504	405.180838	710.334521	-156.573874	275.472578	504.310515	-132.375970	292.762519	506.669634	-217.018029	200.053238	475.727069	-165.798200	496.738177	426.908598	-167.553842	430.590380	410.535744	-108.684987	89.932882	1001.975579	-491.866053	161.631611	953.392835	-497.654683	188.821988	976.558443	-490.539377	200.886973	873.495468	-502.169423	282.705387	736.372919	-482.257522	310.898248	710.555002	-372.665929	231.747760	624.805160	-500.049672	200.228860	547.878794	-472.837588	132.569492	490.570928	-467.885618	224.107104	537.111334	-443.373726	43.317307	373.735602	-454.449348	44.684188	378.017982	-365.473604	-32.476805	398.705684	-409.983139	202.345809	206.602088	-414.768066	0.000000	0.000000	-0.000000	122.655765	218.847369	-474.739215	-190.554104	934.163105	-287.026599	-18.331019	79.334454	-484.636906	-18.273070	79.364852	-83.812791	
1752	8.7600	515.878084	1342.346315	-122.966248	540.384356	1339.925292	-383.534099	484.454523	1409.571787	-264.797253	466.057991	1249.926052	-266.240019	438.803722	1062.070833	22.190799	674.703155	947.527679	-104.196057	469.835335	1117.173780	-578.502883	681.189453	946.124814	-502.927574	-77.405943	1179.765632	-304.703211	88.474973	1188.657349	-457.486050	64.194364	1201.506092	-138.537091	118.739913	1138.155826	-409.373931	107.099870	1147.289899	-176.888188	-55.337716	1229.106562	-262.974833	-48.956044	1225.180082	-339.497660	28.159810	1157.547546	-117.130011	39.236292	1082.151314	-479.391532	164.271753	1071.824282	-113.815950	249.616259	1050.928415	-126.034322	313.248464	994.712520	-129.631535	262.297374	1080.638393	-145.444334	429.828919	908.249722	-158.001015	408.719143	879.823675	-269.587926	382.871422	793.215469	-126.482836	374.131206	705.605334	-134.019863	319.886141	638.198826	-134.178274	404.765130	695.924982	-156.758505	276.268605	488.802564	-132.962692	292.968573	491.962412	-217.564772	201.848344	457.937201	-166.507232	499.521251	419.804170	-167.289817	433.781975	401.151717	-108.471556	92.763168	1002.188542	-491.323659	165.662150	955.304347	-497.052006	192.315323	978.878066	-489.314233	206.478668	876.163993	-501.757002	289.180542	741.288270	-481.720083	317.017842	715.241284	-372.202900	237.027591	631.110935	-499.495086	203.645552	555.042132	-472.290803	134.509814	499.403065	-467.243503	227.357658	543.782864	-442.770444	42.440405	384.777817	-454.034439	44.027434	389.049015	-364.983239	-32.635895	411.340292	-409.650346	197.580986	213.911430	-414.811981	0.000000	0.000000	-0.000000	118.199467	228.086982	-474.682245	-190.544885	934.167698	-287.011509	-18.312587	79.280878	-484.637592	-18.249899	79.292210	-83.826860	
1753	8.7650	516.127230	1342.383189	-123.724662	539.884526	1339.569416	-385.073836	484.673973	1409.174111	-266.007685	466.484208	1249.557412	-266.757463	438.977625	1062.387759	21.869250	674.963699	947.597932	-104.047827	468.698641	1116.185144	-578.696457	680.723897	945.763377	-503.606896	-77.096440	1178.267056	-305.048837	88.905241	1187.732555	-457.040907	64.694046	1199.674230	-138.265058	119.216639	1137.647691	-408.954082	108.567496	1147.196482	-177.918206	-55.946926	1227.753964	-262.072104	-48.743117	1223.764828	-339.874968	28.810909	1153.427505	-117.216855	41.073890	1081.149734	-479.835329	164.372939	1063.325488	-112.928388	249.234303	1040.503272	-125.421194	311.607988	983.068187	-129.935868	262.912997	1069.977612	-144.408659	425.759338	893.726362	-157.823910	404.494330	865.491271	-267.713906	379.364805	777.444670	-126.046689	371.576749	689.725449	-134.135728	318.821516	621.636864	-134.549442	402.448809	680.802626	-157.215227	276.294433	473.143883	-133.137795	293.301223	477.163738	-218.214994	203.215853	440.502890	-167.015222	501.737373	412.022994	-166.881566	436.503520	391.174450	-108.326020	95.735836	1002.625036	-491.048239	169.549994	957.148201	-496.567379	195.680826	981.188480	-488.195003	211.868958	878.864404	-501.518472	295.427357	746.190491	-481.215619	323.104943	720.000888	-371.289462	241.705746	637.481174	-498.935138	206.883321	562.217102	-471.796929	136.501462	508.218226	-466.764032	230.048158	550.520281	-442.183339	41.876533	395.848349	-453.564192	43.635955	400.145994	-364.500086	-32.693434	423.898208	-408.995855	193.393915	221.860868	-415.073082	0.000000	0.000000	-0.000000	114.234328	237.865138	-474.754839	-190.535605	934.172353	-286.996422	-18.300288	79.206719	-484.658530	-18.259419	79.279608	-83.831957	
1754	8.7700	516.460043	1342.492817	-124.529324	539.610456	1339.310465	-386.918960	484.907205	1408.849729	-267.010517	467.179233	1249.109105	-267.521392	439.095184	1062.823931	21.537076	675.233047	947.616210	-103.624544	467.689264	1115.239772	-578.774996	680.050207	945.324607	-504.119797	-76.748881	1176.677800	-305.309741	89.558312	1186.742217	-456.724790	65.385203	1197.801972	-137.742429	119.805222	1137.035370	-408.427702	110.572537	1146.957284	-178.043265	-55.121215	1225.940238	-262.174368	-48.609025	1222.237377	-340.058944	29.505659	1149.139252	-117.118425	43.044429	1080.256937	-480.240688	164.378100	1054.466326	-112.653040	249.093466	1029.712549	-124.371561	309.585124	970.911918	-129.655012	263.476668	1059.366762	-142.641395	421.711369	879.329277	-158.105513	399.104190	850.898554	-269.690556	375.599017	760.802671	-125.465908	368.867690	673.635961	-134.534585	317.220107	604.781774	-135.455660	399.766377	665.374315	-157.809767	276.246980	457.935548	-133.389398	293.860437	462.681930	-219.101011	204.227575	423.983431	-167.412389	503.465468	403.566105	-166.627778	438.717891	380.955096	-108.191320	98.718769	1003.150601	-490.678602	173.327304	959.269530	-496.493978	198.885993	983.326354	-486.954925	217.010432	881.646670	-501.376653	301.468200	751.140006	-480.656330	328.851839	724.741856	-370.794164	246.309649	643.957527	-498.608488	209.963636	569.534569	-471.424913	138.430104	516.933160	-466.308177	232.937502	557.536099	-441.793858	41.486024	406.972888	-453.110896	43.280704	411.416296	-363.865382	-32.579377	436.186822	-408.495336	189.863373	230.200390	-415.238595	0.000000	0.000000	-0.000000	110.883185	247.797630	-474.736595	-190.526236	934.177006	-286.981430	-18.305670	79.114857	-484.661741	-18.259212	79.236898	-83.836637	
1755	8.7750	516.855317	1342.699982	-125.370814	539.277630	1339.141558	-388.665606	485.178806	1408.581802	-268.129271	468.012828	1248.811549	-268.267295	439.162892	1063.246610	21.209303	675.557012	947.629027	-102.930261	466.751438	1114.185076	-578.692356	679.341744	944.966419	-504.427807	-76.419932	1175.080159	-305.484406	90.041339	1185.697527	-456.383206	65.970902	1195.909154	-137.316231	120.511092	1136.410059	-408.108752	112.222701	1146.707888	-178.441800	-54.938952	1224.363981	-261.949396	-48.537612	1220.748883	-340.176934	30.327821	1144.759034	-116.893898	45.062006	1079.519879	-480.536685	164.111886	1046.281727	-112.312751	247.837290	1018.997917	-124.281409	307.386463	958.311698	-130.224288	264.166903	1049.163771	-140.631843	416.663889	864.865675	-157.395803	394.428520	836.368667	-267.402627	371.376367	744.808885	-124.666068	366.445655	657.703557	-135.277472	315.361373	588.018441	-135.989976	396.900388	650.097035	-158.716667	276.446085	442.919078	-133.576124	293.991321	448.620017	-219.565615	204.827123	408.407818	-167.356153	504.823650	394.630005	-166.565531	440.492020	370.581804	-108.290899	101.504654	1003.889748	-490.774957	176.858271	961.271607	-496.220795	201.944013	985.735266	-486.243969	221.908081	884.455382	-501.349126	307.533867	756.029737	-480.196485	334.496132	729.420798	-370.508173	250.692003	650.590405	-498.506372	212.945112	576.865668	-471.153117	140.361765	525.829753	-466.026860	235.723591	564.427298	-441.565148	41.346558	418.047599	-452.786589	43.902689	422.023368	-363.681322	-32.236119	448.277050	-407.834412	186.800768	238.855421	-415.283619	0.000000	0.000000	-0.000000	108.291283	257.810184	-474.717182	-190.516792	934.181720	-286.966470	-18.299115	79.051463	-484.702927	-18.269440	79.227473	-83.869212	
